#!OML:ASF H:\Terrain\Patient Classification 1\Walking\liu\liu.ASF
:FULLY-SPECIFIED
:DEGREES
437
root 10.566300 17.222601 25.774099 6.865140 -2.160400 2.423950
lowerback -67.777802 20.533199 -35.431099
upperback -27.498701 29.512300 2.408900
thorax 7.648570 14.995399 24.446400
lowerneck -180.813004 -56.002403 -143.151001
upperneck 223.342987 -69.885002 127.756996
head 112.118996 -29.346298 60.613701
rclavicle -0.000000 -0.000000
rhumerus -443.312012 95.505692 -900.049988
rradius 294.662994
rwrist -123.229996
rhand -275.695984 -268.209991
rfingers 71.250198
rthumb -9.702291 -567.985962
lclavicle -0.000000 -0.000000
lhumerus -408.209991 -32.817501 887.950989
lradius 190.729004
lwrist -54.972500
lhand -119.327003 -247.070999
lfingers 71.250198
lthumb 141.218002 47.930000
rfemur -18.153599 -19.049900 154.979996
rtibia 550.353027
rfoot 137.915009 -22.037600
rtoes -108.189003
lfemur -307.458984 43.770699 -283.753998
ltibia 314.464996
lfoot -77.487503 63.564903
ltoes 44.601303
438
root 10.553300 17.239599 25.802401 7.614060 -1.877160 0.611635
lowerback -64.839699 20.000000 -19.325001
upperback -30.616800 27.651402 8.579510
thorax 3.420510 14.084801 21.458799
lowerneck -182.212997 -56.077301 -146.363007
upperneck 221.842987 -69.177200 129.621002
head 111.931000 -29.038799 61.947598
rclavicle -0.000000 0.000000
rhumerus -442.281982 95.290298 -897.330017
rradius 295.890991
rwrist -118.720001
rhand -303.255981 -235.498016
rfingers 71.250198
rthumb -36.319099 -534.986023
lclavicle -0.000000 0.000000
lhumerus -396.934021 -39.840801 892.582031
lradius 189.958984
lwrist -51.568699
lhand -116.449005 -240.751007
lfingers 71.250198
lthumb 143.992004 54.054199
rfemur -48.418198 -14.354300 182.420013
rtibia 570.877014
rfoot 122.424004 -47.573700
rtoes -91.764900
lfemur -315.618011 42.679901 -262.470001
ltibia 310.921997
lfoot -72.323700 63.236198
ltoes 18.680799
439
root 10.543300 17.254299 25.847000 7.930480 -1.789890 -0.631935
lowerback -48.619400 17.773600 -9.790490
upperback -44.590996 24.151001 12.978500
thorax -19.608400 12.564600 19.539700
lowerneck -167.196991 -51.755299 -145.697006
upperneck 228.437012 -65.771400 128.916000
head 110.779999 -28.061600 62.442200
rclavicle 0.000000 0.000000
rhumerus -465.449982 100.194000 -904.802979
rradius 300.550995
rwrist -120.386002
rhand -362.868988 -163.682999
rfingers 71.250198
rthumb -93.866196 -461.393005
lclavicle 0.000000 0.000000
lhumerus -408.572021 -42.000698 893.841003
lradius 190.471008
lwrist -50.605698
lhand -133.807999 -252.087006
lfingers 71.250198
lthumb 127.261002 43.834999
rfemur -74.301201 -9.971620 201.013000
rtibia 591.401001
rfoot 104.679001 -65.057304
rtoes -97.138298
lfemur -319.710022 42.749802 -247.621002
ltibia 311.109009
lfoot -71.128502 63.912300
ltoes 3.281990
440
root 10.573900 17.286100 26.012100 7.490870 -1.571200 0.725360
lowerback -60.021202 14.060801 -21.770401
upperback -29.849400 19.786201 10.139101
thorax 1.792920 10.198700 23.810598
lowerneck -191.509995 -54.976902 -141.809998
upperneck 230.345993 -67.386696 125.616997
head 116.307999 -28.054298 60.234901
rclavicle 0.000000 0.000000
rhumerus -446.095001 110.022003 -905.708008
rradius 303.457001
rwrist -130.545990
rhand -348.434998 -219.358002
rfingers 71.250198
rthumb -79.937500 -517.645996
lclavicle 0.000000 0.000000
lhumerus -376.425018 -44.786602 894.203003
lradius 188.031006
lwrist -49.570999
lhand -132.781998 -247.858002
lfingers 71.250198
lthumb 128.250000 48.002098
rfemur -80.088593 -17.880800 183.638992
rtibia 605.416992
rfoot 87.801102 -65.197403
rtoes -100.347000
lfemur -304.192017 42.060097 -264.089996
ltibia 305.984985
lfoot -76.447403 61.781998
ltoes -11.568800
441
root 10.582500 17.307501 26.087400 7.895750 -1.231660 -0.056689
lowerback -52.648201 12.222300 -13.673200
upperback -38.617302 16.869801 12.624101
thorax -10.996300 8.877991 21.332199
lowerneck -179.396988 -48.235798 -132.942001
upperneck 232.382996 -59.976803 117.292007
head 112.831001 -25.251801 56.746300
rclavicle -0.000000 0.000000
rhumerus -461.106995 113.479004 -909.794006
rradius 308.377991
rwrist -134.619003
rhand -332.522003 -246.513000
rfingers 71.250198
rthumb -64.576996 -545.328003
lclavicle -0.000000 0.000000
lhumerus -380.784973 -46.974300 894.066040
lradius 191.919006
lwrist -54.200600
lhand -119.343002 -236.660004
lfingers 71.250198
lthumb 141.203003 58.341698
rfemur -100.916992 -19.297901 195.506989
rtibia 616.547974
rfoot 78.925201 -78.849503
rtoes -79.805901
lfemur -302.611023 42.107502 -255.944992
ltibia 297.080017
lfoot -72.350998 58.973198
ltoes -22.325302
442
root 10.659800 17.366800 26.386400 6.872620 -1.085190 2.310380
lowerback -61.484200 7.970490 -30.996302
upperback -35.637199 12.165999 6.078530
thorax -3.053850 6.607760 24.336399
lowerneck -168.860001 -45.263000 -134.582993
upperneck 230.025009 -57.796700 122.289001
head 109.746002 -24.138899 59.219398
rclavicle 0.000000 0.000000
rhumerus -471.397034 115.628006 -910.783997
rradius 310.757996
rwrist -130.554001
rhand -321.566010 -256.993988
rfingers 71.250198
rthumb -53.998901 -556.106018
lclavicle 0.000000 0.000000
lhumerus -382.042999 -47.718002 894.066040
lradius 195.400009
lwrist -55.892902
lhand -113.312996 -233.216003
lfingers 71.250198
lthumb 147.013000 61.371998
rfemur -85.274895 -32.616501 158.964996
rtibia 617.825012
rfoot 62.646198 -67.594200
rtoes -74.579201
lfemur -267.425995 45.290901 -286.137024
ltibia 283.207001
lfoot -84.300606 52.727898
ltoes -19.750000
443
root 10.691100 17.392300 26.555700 6.266290 -0.993455 3.418130
lowerback -63.002399 5.968100 -40.128197
upperback -28.491699 10.181900 3.696450
thorax 5.144800 5.438530 27.000000
lowerneck -178.513000 -45.431198 -133.580002
upperneck 231.436996 -56.417999 119.515999
head 111.843994 -23.458300 58.244900
rclavicle -0.000000 -0.000000
rhumerus -463.114014 114.146004 -905.795959
rradius 312.872009
rwrist -121.968002
rhand -317.571991 -279.614990
rfingers 71.250198
rthumb -50.143097 -578.821960
lclavicle -0.000000 -0.000000
lhumerus -364.571991 -59.213799 898.917969
lradius 196.800003
lwrist -47.579399
lhand -114.538002 -232.091995
lfingers 71.250198
lthumb 145.832993 62.580700
rfemur -86.744095 -36.622002 143.850006
rtibia 622.501953
rfoot 49.977699 -63.944702
rtoes -96.155998
lfemur -248.066010 46.121002 -298.950012
ltibia 273.940002
lfoot -88.694298 50.197102
ltoes 6.378080
444
root 10.704100 17.429399 26.701000 6.040420 -0.755831 3.102700
lowerback -64.411201 5.476710 -35.889400
upperback -23.368000 9.411230 5.013710
thorax 11.329900 4.831770 25.998800
lowerneck -193.195007 -49.854004 -137.783005
upperneck 235.664993 -60.453400 121.736000
head 117.223999 -25.013399 59.401203
rclavicle -0.000000 0.000000
rhumerus -454.398010 111.339996 -901.378052
rradius 313.740997
rwrist -120.853004
rhand -324.320984 -286.369995
rfingers 71.250198
rthumb -56.659698 -585.413025
lclavicle -0.000000 0.000000
lhumerus -346.473022 -70.138199 902.257019
lradius 195.962997
lwrist -47.336899
lhand -116.249001 -232.084991
lfingers 71.250198
lthumb 144.184998 62.706799
rfemur -94.704300 -35.754700 148.960999
rtibia 624.679993
rfoot 36.966900 -67.660698
rtoes -121.692001
lfemur -237.106995 45.794102 -295.026001
ltibia 267.101013
lfoot -90.809402 48.563099
ltoes 25.787800
445
root 10.710700 17.426500 26.813299 6.000270 -0.458248 2.163550
lowerback -60.343399 3.816930 -26.059700
upperback -33.642002 6.363740 8.223560
thorax -1.208060 3.599150 23.449499
lowerneck -160.711990 -43.590103 -136.819000
upperneck 233.160004 -54.921398 117.882004
head 108.791000 -23.796301 58.477100
rclavicle -0.000000 0.000000
rhumerus -476.311981 108.390999 -902.369995
rradius 317.565979
rwrist -119.094002
rhand -312.847015 -277.496002
rfingers 71.250198
rthumb -45.580402 -576.805969
lclavicle -0.000000 0.000000
lhumerus -358.543030 -71.220901 903.168030
lradius 196.945007
lwrist -56.396797
lhand -113.662003 -234.528015
lfingers 71.250198
lthumb 146.677002 60.083900
rfemur -107.242004 -32.602100 162.227005
rtibia 630.596008
rfoot 18.060101 -73.625801
rtoes -122.513000
lfemur -230.704987 47.957001 -285.627014
ltibia 265.877014
lfoot -94.486397 47.803501
ltoes 4.015800
446
root 10.724800 17.463499 26.915701 6.138830 -0.162077 1.438650
lowerback -61.283398 1.210480 -19.040400
upperback -32.181202 2.535930 11.524100
thorax 1.078190 1.577000 22.691500
lowerneck -165.442993 -39.859398 -126.141998
upperneck 235.177002 -48.855701 105.740997
head 108.910995 -21.322802 52.948399
rclavicle 0.000000 0.000000
rhumerus -473.700989 107.729996 -897.175964
rradius 322.682007
rwrist -115.539001
rhand -336.123016 -276.875000
rfingers 71.250198
rthumb -68.053101 -575.580994
lclavicle 0.000000 0.000000
lhumerus -344.058990 -72.973602 902.132019
lradius 196.362000
lwrist -60.353298
lhand -109.523003 -235.962997
lfingers 71.250198
lthumb 150.664001 58.354103
rfemur -120.032997 -31.206902 172.443008
rtibia 634.854980
rfoot -0.098053 -75.226799
rtoes -107.807999
lfemur -230.884995 44.472198 -276.634003
ltibia 267.537994
lfoot -98.515594 47.024696
ltoes 24.576099
447
root 10.738100 17.462500 27.003000 6.357720 0.120729 1.221560
lowerback -62.576500 -1.341420 -17.128399
upperback -30.210899 -0.964171 13.514200
thorax 4.013410 -0.234394 23.454000
lowerneck -173.092987 -40.559002 -128.830994
upperneck 233.411011 -49.409698 111.000000
head 110.052994 -20.997299 55.279697
rclavicle 0.000000 -0.000000
rhumerus -468.974976 106.136002 -891.295044
rradius 326.362976
rwrist -112.625000
rhand -338.256989 -268.850006
rfingers 71.250198
rthumb -70.113098 -567.489014
lclavicle 0.000000 -0.000000
lhumerus -328.655029 -75.353600 902.105042
lradius 198.222992
lwrist -61.879501
lhand -108.592995 -236.432007
lfingers 71.250198
lthumb 151.559998 57.817898
rfemur -137.186005 -32.071701 176.795013
rtibia 640.740967
rfoot -13.032399 -75.349701
rtoes -122.141998
lfemur -229.743011 43.699299 -274.953979
ltibia 269.053986
lfoot -103.181999 47.243500
ltoes 0.465192
